<?xml version="1.0" encoding="utf-8" standalone="no"?>
<!DOCTYPE svg PUBLIC "-//W3C//DTD SVG 1.1//EN"
  "http://www.w3.org/Graphics/SVG/1.1/DTD/svg11.dtd">
<svg xmlns:xlink="http://www.w3.org/1999/xlink" width="334.8pt" height="443.52pt" viewBox="0 0 334.8 443.52" xmlns="http://www.w3.org/2000/svg" version="1.1">
 <metadata>
  <rdf:RDF xmlns:dc="http://purl.org/dc/elements/1.1/" xmlns:cc="http://creativecommons.org/ns#" xmlns:rdf="http://www.w3.org/1999/02/22-rdf-syntax-ns#">
   <cc:Work>
    <dc:type rdf:resource="http://purl.org/dc/dcmitype/StillImage"/>
    <dc:date>2024-01-11T11:30:47.771898</dc:date>
    <dc:format>image/svg+xml</dc:format>
    <dc:creator>
     <cc:Agent>
      <dc:title>Matplotlib v3.8.2, https://matplotlib.org/</dc:title>
     </cc:Agent>
    </dc:creator>
   </cc:Work>
  </rdf:RDF>
 </metadata>
 <defs>
  <style type="text/css">*{stroke-linejoin: round; stroke-linecap: butt}</style>
 </defs>
 <g id="figure_1">
  <g id="patch_1">
   <path d="M 0 443.52 
L 334.8 443.52 
L 334.8 0 
L 0 0 
z
" style="fill: #ffffff"/>
  </g>
  <g id="axes_1">
   <g id="patch_2">
    <path d="M 61.226638 226.896306 
L 245.260465 226.896306 
L 245.260465 65.102675 
L 61.226638 65.102675 
z
" clip-path="url(#p5a6a325d3f)" style="fill: #ff9999; opacity: 0.4; stroke: #ff9999; stroke-linejoin: miter"/>
   </g>
   <g id="patch_3">
    <path d="M 61.226638 378.417325 
L 245.260465 378.417325 
L 245.260465 271.838981 
L 61.226638 271.838981 
z
" clip-path="url(#p5a6a325d3f)" style="fill: #ff9999; opacity: 0.4; stroke: #ff9999; stroke-linejoin: miter"/>
   </g>
   <g id="patch_4">
    <path d="M 15.218182 250.009682 
L 319.581818 250.009682 
L 319.581818 35.568917 
L 15.218182 35.568917 
L 15.218182 250.009682 
z
" clip-path="url(#p5a6a325d3f)" style="fill: none; opacity: 0"/>
   </g>
   <g id="patch_5">
    <path d="M 100.156871 258.998217 
L 135.547992 258.998217 
L 135.547992 391.258089 
L 170.939112 391.258089 
L 170.939112 52.261911 
L 135.547992 52.261911 
L 135.547992 239.73707 
L 100.156871 239.73707 
z
" clip-path="url(#p5a6a325d3f)" style="fill: #008000; opacity: 0.2; stroke: #008000; stroke-linejoin: miter"/>
   </g>
   <g id="patch_6">
    <path d="M 32.913742 63.818599 
L 61.226638 63.818599 
L 61.226638 151.135796 
L 110.774207 151.135796 
L 110.774207 63.818599 
L 301.886258 63.818599 
L 301.886258 20.16 
L 32.913742 20.16 
z
" clip-path="url(#p5a6a325d3f)" style="fill: #6e8cff; opacity: 0.4; stroke: #6e8cff; stroke-linejoin: miter"/>
   </g>
   <g id="patch_7">
    <path d="M 32.913742 423.36 
L 301.886258 423.36 
L 301.886258 379.701401 
L 110.774207 379.701401 
L 110.774207 292.384204 
L 61.226638 292.384204 
L 61.226638 379.701401 
L 32.913742 379.701401 
z
" clip-path="url(#p5a6a325d3f)" style="fill: #6e8cff; opacity: 0.4; stroke: #6e8cff; stroke-linejoin: miter"/>
   </g>
   <g id="patch_8">
    <path d="M 195.712896 363.008408 
L 262.956025 363.008408 
L 262.956025 80.511592 
L 195.712896 80.511592 
z
" clip-path="url(#p5a6a325d3f)" style="fill: #add8e6; opacity: 0.4; stroke: #add8e6; stroke-linejoin: miter"/>
   </g>
   <g id="patch_9">
    <path d="M 75.383087 266.702675 
L 149.70444 266.702675 
L 149.70444 221.76 
L 75.383087 221.76 
z
" clip-path="url(#p5a6a325d3f)" style="fill: #ffff00; stroke: #ffff00; stroke-linejoin: miter"/>
   </g>
   <g id="patch_10">
    <path d="M 195.712896 106.193121 
L 241.721353 106.193121 
L 241.721353 89.500127 
L 195.712896 89.500127 
z
" clip-path="url(#p5a6a325d3f)" style="fill: #ffffff; opacity: 0.8; stroke: #ffffff; stroke-linejoin: miter"/>
   </g>
   <g id="patch_11">
    <path d="M 195.712896 142.147261 
L 241.721353 142.147261 
L 241.721353 125.454268 
L 195.712896 125.454268 
z
" clip-path="url(#p5a6a325d3f)" style="fill: #ffffff; opacity: 0.8; stroke: #ffffff; stroke-linejoin: miter"/>
   </g>
   <g id="patch_12">
    <path d="M 195.712896 318.065732 
L 241.721353 318.065732 
L 241.721353 301.372739 
L 195.712896 301.372739 
z
" clip-path="url(#p5a6a325d3f)" style="fill: #ffffff; opacity: 0.8; stroke: #ffffff; stroke-linejoin: miter"/>
   </g>
   <g id="patch_13">
    <path d="M 195.712896 354.019873 
L 241.721353 354.019873 
L 241.721353 337.326879 
L 195.712896 337.326879 
z
" clip-path="url(#p5a6a325d3f)" style="fill: #ffffff; opacity: 0.8; stroke: #ffffff; stroke-linejoin: miter"/>
   </g>
   <g id="patch_14">
    <path d="M 103.695983 257.71414 
L 149.70444 257.71414 
L 149.70444 241.021146 
L 103.695983 241.021146 
z
" clip-path="url(#p5a6a325d3f)" style="fill: #ffffff; opacity: 0.8; stroke: #ffffff; stroke-linejoin: miter"/>
   </g>
   <g id="patch_15">
    <path d="M 64.765751 106.193121 
L 110.774207 106.193121 
L 110.774207 89.500127 
L 64.765751 89.500127 
z
" clip-path="url(#p5a6a325d3f)" style="fill: #ffffff; opacity: 0.8; stroke: #ffffff; stroke-linejoin: miter"/>
   </g>
   <g id="patch_16">
    <path d="M 64.765751 142.147261 
L 110.774207 142.147261 
L 110.774207 125.454268 
L 64.765751 125.454268 
z
" clip-path="url(#p5a6a325d3f)" style="fill: #ffffff; opacity: 0.8; stroke: #ffffff; stroke-linejoin: miter"/>
   </g>
   <g id="patch_17">
    <path d="M 64.765751 318.065732 
L 110.774207 318.065732 
L 110.774207 301.372739 
L 64.765751 301.372739 
z
" clip-path="url(#p5a6a325d3f)" style="fill: #ffffff; opacity: 0.8; stroke: #ffffff; stroke-linejoin: miter"/>
   </g>
   <g id="patch_18">
    <path d="M 64.765751 354.019873 
L 110.774207 354.019873 
L 110.774207 337.326879 
L 64.765751 337.326879 
z
" clip-path="url(#p5a6a325d3f)" style="fill: #ffffff; opacity: 0.8; stroke: #ffffff; stroke-linejoin: miter"/>
   </g>
   <g id="patch_19">
    <path d="M 245.260465 65.102675 
L 245.260465 226.896306 
L 170.939112 226.896306 
L 170.939112 65.102675 
z
" clip-path="url(#p5a6a325d3f)" style="fill: url(#h6e30a57754); opacity: 0.8; stroke: #000000; stroke-linejoin: miter"/>
   </g>
   <g id="patch_20">
    <path d="M 135.547992 378.417325 
L 135.547992 271.838981 
L 170.939112 271.838981 
L 170.939112 378.417325 
z
" clip-path="url(#p5a6a325d3f)" style="fill: url(#h6e30a57754); opacity: 0.8; stroke: #000000; stroke-linejoin: miter"/>
   </g>
   <g id="line2d_1">
    <path d="M 61.226638 226.896306 
L 245.260465 226.896306 
L 245.260465 65.102675 
L 61.226638 65.102675 
L 61.226638 226.896306 
" clip-path="url(#p5a6a325d3f)" style="fill: none; stroke: #ff9999; stroke-width: 1.5; stroke-linecap: square"/>
   </g>
   <g id="line2d_2">
    <path d="M 61.226638 378.417325 
L 245.260465 378.417325 
L 245.260465 271.838981 
L 61.226638 271.838981 
L 61.226638 378.417325 
" clip-path="url(#p5a6a325d3f)" style="fill: none; stroke: #ff9999; stroke-width: 1.5; stroke-linecap: square"/>
   </g>
   <g id="line2d_3">
    <path d="M 15.218182 250.009682 
L 319.581818 250.009682 
L 319.581818 35.568917 
L 15.218182 35.568917 
L 15.218182 250.009682 
" clip-path="url(#p5a6a325d3f)" style="fill: none; stroke: #008000; stroke-width: 1.5; stroke-linecap: square"/>
   </g>
   <g id="line2d_4">
    <path d="M 100.156871 258.998217 
L 135.547992 258.998217 
L 135.547992 391.258089 
L 170.939112 391.258089 
L 170.939112 52.261911 
L 135.547992 52.261911 
L 135.547992 239.73707 
L 100.156871 239.73707 
L 100.156871 258.998217 
" clip-path="url(#p5a6a325d3f)" style="fill: none; stroke: #008000; stroke-width: 1.5; stroke-linecap: square"/>
   </g>
   <g id="line2d_5">
    <path d="M 32.913742 63.818599 
L 61.226638 63.818599 
L 61.226638 151.135796 
L 110.774207 151.135796 
L 110.774207 63.818599 
L 301.886258 63.818599 
L 301.886258 20.16 
L 32.913742 20.16 
L 32.913742 63.818599 
" clip-path="url(#p5a6a325d3f)" style="fill: none; stroke: #6e8cff; stroke-width: 1.5; stroke-linecap: square"/>
   </g>
   <g id="line2d_6">
    <path d="M 32.913742 423.36 
L 301.886258 423.36 
L 301.886258 379.701401 
L 110.774207 379.701401 
L 110.774207 292.384204 
L 61.226638 292.384204 
L 61.226638 379.701401 
L 32.913742 379.701401 
L 32.913742 423.36 
" clip-path="url(#p5a6a325d3f)" style="fill: none; stroke: #6e8cff; stroke-width: 1.5; stroke-linecap: square"/>
   </g>
   <g id="line2d_7">
    <path d="M 195.712896 363.008408 
L 262.956025 363.008408 
L 262.956025 80.511592 
L 195.712896 80.511592 
L 195.712896 363.008408 
" clip-path="url(#p5a6a325d3f)" style="fill: none; stroke: #add8e6; stroke-width: 1.5; stroke-linecap: square"/>
   </g>
   <g id="line2d_8">
    <path d="M 75.383087 266.702675 
L 149.70444 266.702675 
L 149.70444 221.76 
L 75.383087 221.76 
L 75.383087 266.702675 
" clip-path="url(#p5a6a325d3f)" style="fill: none; stroke: #ffff00; stroke-width: 1.5; stroke-linecap: square"/>
   </g>
   <g id="line2d_9">
    <path d="M 195.712896 106.193121 
L 241.721353 106.193121 
L 241.721353 89.500127 
L 195.712896 89.500127 
L 195.712896 106.193121 
" clip-path="url(#p5a6a325d3f)" style="fill: none; stroke: #000000; stroke-opacity: 0; stroke-width: 1.5; stroke-linecap: square"/>
   </g>
   <g id="line2d_10">
    <path d="M 195.712896 142.147261 
L 241.721353 142.147261 
L 241.721353 125.454268 
L 195.712896 125.454268 
L 195.712896 142.147261 
" clip-path="url(#p5a6a325d3f)" style="fill: none; stroke: #000000; stroke-opacity: 0; stroke-width: 1.5; stroke-linecap: square"/>
   </g>
   <g id="line2d_11">
    <path d="M 195.712896 318.065732 
L 241.721353 318.065732 
L 241.721353 301.372739 
L 195.712896 301.372739 
L 195.712896 318.065732 
" clip-path="url(#p5a6a325d3f)" style="fill: none; stroke: #000000; stroke-opacity: 0; stroke-width: 1.5; stroke-linecap: square"/>
   </g>
   <g id="line2d_12">
    <path d="M 195.712896 354.019873 
L 241.721353 354.019873 
L 241.721353 337.326879 
L 195.712896 337.326879 
L 195.712896 354.019873 
" clip-path="url(#p5a6a325d3f)" style="fill: none; stroke: #000000; stroke-opacity: 0; stroke-width: 1.5; stroke-linecap: square"/>
   </g>
   <g id="line2d_13">
    <path d="M 103.695983 257.71414 
L 149.70444 257.71414 
L 149.70444 241.021146 
L 103.695983 241.021146 
L 103.695983 257.71414 
" clip-path="url(#p5a6a325d3f)" style="fill: none; stroke: #000000; stroke-opacity: 0; stroke-width: 1.5; stroke-linecap: square"/>
   </g>
   <g id="line2d_14">
    <path d="M 64.765751 106.193121 
L 110.774207 106.193121 
L 110.774207 89.500127 
L 64.765751 89.500127 
L 64.765751 106.193121 
" clip-path="url(#p5a6a325d3f)" style="fill: none; stroke: #000000; stroke-opacity: 0; stroke-width: 1.5; stroke-linecap: square"/>
   </g>
   <g id="line2d_15">
    <path d="M 64.765751 142.147261 
L 110.774207 142.147261 
L 110.774207 125.454268 
L 64.765751 125.454268 
L 64.765751 142.147261 
" clip-path="url(#p5a6a325d3f)" style="fill: none; stroke: #000000; stroke-opacity: 0; stroke-width: 1.5; stroke-linecap: square"/>
   </g>
   <g id="line2d_16">
    <path d="M 64.765751 318.065732 
L 110.774207 318.065732 
L 110.774207 301.372739 
L 64.765751 301.372739 
L 64.765751 318.065732 
" clip-path="url(#p5a6a325d3f)" style="fill: none; stroke: #000000; stroke-opacity: 0; stroke-width: 1.5; stroke-linecap: square"/>
   </g>
   <g id="line2d_17">
    <path d="M 64.765751 354.019873 
L 110.774207 354.019873 
L 110.774207 337.326879 
L 64.765751 337.326879 
L 64.765751 354.019873 
" clip-path="url(#p5a6a325d3f)" style="fill: none; stroke: #000000; stroke-opacity: 0; stroke-width: 1.5; stroke-linecap: square"/>
   </g>
   <g id="text_1">
    <g id="patch_21">
     <path d="M 234.643129 247.080508 
L 298.416566 247.080508 
Q 302.016566 247.080508 302.016566 243.480508 
L 302.016566 226.059883 
Q 302.016566 222.459883 298.416566 222.459883 
L 234.643129 222.459883 
Q 231.043129 222.459883 231.043129 226.059883 
L 231.043129 243.480508 
Q 231.043129 247.080508 234.643129 247.080508 
z
" style="fill: #e4efff; stroke: #add8e6; stroke-width: 2; stroke-linejoin: miter"/>
    </g>
    <!-- ZN = 0 -->
    <g transform="translate(234.643129 239.73707) scale(0.18 -0.18)">
     <defs>
      <path id="DejaVuSans-5a" d="M 359 4666 
L 4025 4666 
L 4025 4184 
L 1075 531 
L 4097 531 
L 4097 0 
L 288 0 
L 288 481 
L 3238 4134 
L 359 4134 
L 359 4666 
z
" transform="scale(0.015625)"/>
      <path id="DejaVuSans-4e" d="M 628 4666 
L 1478 4666 
L 3547 763 
L 3547 4666 
L 4159 4666 
L 4159 0 
L 3309 0 
L 1241 3903 
L 1241 0 
L 628 0 
L 628 4666 
z
" transform="scale(0.015625)"/>
      <path id="DejaVuSans-20" transform="scale(0.015625)"/>
      <path id="DejaVuSans-3d" d="M 678 2906 
L 4684 2906 
L 4684 2381 
L 678 2381 
L 678 2906 
z
M 678 1631 
L 4684 1631 
L 4684 1100 
L 678 1100 
L 678 1631 
z
" transform="scale(0.015625)"/>
      <path id="DejaVuSans-30" d="M 2034 4250 
Q 1547 4250 1301 3770 
Q 1056 3291 1056 2328 
Q 1056 1369 1301 889 
Q 1547 409 2034 409 
Q 2525 409 2770 889 
Q 3016 1369 3016 2328 
Q 3016 3291 2770 3770 
Q 2525 4250 2034 4250 
z
M 2034 4750 
Q 2819 4750 3233 4129 
Q 3647 3509 3647 2328 
Q 3647 1150 3233 529 
Q 2819 -91 2034 -91 
Q 1250 -91 836 529 
Q 422 1150 422 2328 
Q 422 3509 836 4129 
Q 1250 4750 2034 4750 
z
" transform="scale(0.015625)"/>
     </defs>
     <use xlink:href="#DejaVuSans-5a"/>
     <use xlink:href="#DejaVuSans-4e" x="68.505859"/>
     <use xlink:href="#DejaVuSans-20" x="143.310547"/>
     <use xlink:href="#DejaVuSans-3d" x="175.097656"/>
     <use xlink:href="#DejaVuSans-20" x="258.886719"/>
     <use xlink:href="#DejaVuSans-30" x="290.673828"/>
    </g>
   </g>
   <g id="text_2">
    <g id="patch_22">
     <path d="M 167.4 430.703437 
L 198.466875 430.703437 
Q 202.066875 430.703437 202.066875 427.103437 
L 202.066875 409.682812 
Q 202.066875 406.082812 198.466875 406.082812 
L 167.4 406.082812 
Q 163.8 406.082812 163.8 409.682812 
L 163.8 427.103437 
Q 163.8 430.703437 167.4 430.703437 
z
" style="fill: #c8cef7; stroke: #6e8cff; stroke-width: 2; stroke-linejoin: miter"/>
    </g>
    <!-- Vss -->
    <g transform="translate(167.4 423.36) scale(0.18 -0.18)">
     <defs>
      <path id="DejaVuSans-56" d="M 1831 0 
L 50 4666 
L 709 4666 
L 2188 738 
L 3669 4666 
L 4325 4666 
L 2547 0 
L 1831 0 
z
" transform="scale(0.015625)"/>
      <path id="DejaVuSans-73" d="M 2834 3397 
L 2834 2853 
Q 2591 2978 2328 3040 
Q 2066 3103 1784 3103 
Q 1356 3103 1142 2972 
Q 928 2841 928 2578 
Q 928 2378 1081 2264 
Q 1234 2150 1697 2047 
L 1894 2003 
Q 2506 1872 2764 1633 
Q 3022 1394 3022 966 
Q 3022 478 2636 193 
Q 2250 -91 1575 -91 
Q 1294 -91 989 -36 
Q 684 19 347 128 
L 347 722 
Q 666 556 975 473 
Q 1284 391 1588 391 
Q 1994 391 2212 530 
Q 2431 669 2431 922 
Q 2431 1156 2273 1281 
Q 2116 1406 1581 1522 
L 1381 1569 
Q 847 1681 609 1914 
Q 372 2147 372 2553 
Q 372 3047 722 3315 
Q 1072 3584 1716 3584 
Q 2034 3584 2315 3537 
Q 2597 3491 2834 3397 
z
" transform="scale(0.015625)"/>
     </defs>
     <use xlink:href="#DejaVuSans-56"/>
     <use xlink:href="#DejaVuSans-73" x="68.408203"/>
     <use xlink:href="#DejaVuSans-73" x="120.507812"/>
    </g>
   </g>
   <g id="text_3">
    <g id="patch_23">
     <path d="M 167.4 27.503437 
L 202.5675 27.503437 
Q 206.1675 27.503437 206.1675 23.903437 
L 206.1675 6.482812 
Q 206.1675 2.882812 202.5675 2.882812 
L 167.4 2.882812 
Q 163.8 2.882812 163.8 6.482812 
L 163.8 23.903437 
Q 163.8 27.503437 167.4 27.503437 
z
" style="fill: #c8cef7; stroke: #6e8cff; stroke-width: 2; stroke-linejoin: miter"/>
    </g>
    <!-- Vdd -->
    <g transform="translate(167.4 20.16) scale(0.18 -0.18)">
     <defs>
      <path id="DejaVuSans-64" d="M 2906 2969 
L 2906 4863 
L 3481 4863 
L 3481 0 
L 2906 0 
L 2906 525 
Q 2725 213 2448 61 
Q 2172 -91 1784 -91 
Q 1150 -91 751 415 
Q 353 922 353 1747 
Q 353 2572 751 3078 
Q 1150 3584 1784 3584 
Q 2172 3584 2448 3432 
Q 2725 3281 2906 2969 
z
M 947 1747 
Q 947 1113 1208 752 
Q 1469 391 1925 391 
Q 2381 391 2643 752 
Q 2906 1113 2906 1747 
Q 2906 2381 2643 2742 
Q 2381 3103 1925 3103 
Q 1469 3103 1208 2742 
Q 947 2381 947 1747 
z
" transform="scale(0.015625)"/>
     </defs>
     <use xlink:href="#DejaVuSans-56"/>
     <use xlink:href="#DejaVuSans-64" x="68.408203"/>
     <use xlink:href="#DejaVuSans-64" x="131.884766"/>
    </g>
   </g>
   <g id="text_4">
    <g id="patch_24">
     <path d="M 100.156871 247.080508 
L 150.447184 247.080508 
Q 154.047184 247.080508 154.047184 243.480508 
L 154.047184 226.059883 
Q 154.047184 222.459883 150.447184 222.459883 
L 100.156871 222.459883 
Q 96.556871 222.459883 96.556871 226.059883 
L 96.556871 243.480508 
Q 96.556871 247.080508 100.156871 247.080508 
z
" style="fill: #ffff00; stroke: #000000; stroke-width: 2; stroke-linejoin: miter"/>
    </g>
    <!-- A = 1 -->
    <g transform="translate(100.156871 239.73707) scale(0.18 -0.18)">
     <defs>
      <path id="DejaVuSans-41" d="M 2188 4044 
L 1331 1722 
L 3047 1722 
L 2188 4044 
z
M 1831 4666 
L 2547 4666 
L 4325 0 
L 3669 0 
L 3244 1197 
L 1141 1197 
L 716 0 
L 50 0 
L 1831 4666 
z
" transform="scale(0.015625)"/>
      <path id="DejaVuSans-31" d="M 794 531 
L 1825 531 
L 1825 4091 
L 703 3866 
L 703 4441 
L 1819 4666 
L 2450 4666 
L 2450 531 
L 3481 531 
L 3481 0 
L 794 0 
L 794 531 
z
" transform="scale(0.015625)"/>
     </defs>
     <use xlink:href="#DejaVuSans-41"/>
     <use xlink:href="#DejaVuSans-20" x="68.408203"/>
     <use xlink:href="#DejaVuSans-3d" x="100.195312"/>
     <use xlink:href="#DejaVuSans-20" x="183.984375"/>
     <use xlink:href="#DejaVuSans-31" x="215.771484"/>
    </g>
   </g>
  </g>
 </g>
 <defs>
  <clipPath id="p5a6a325d3f">
   <rect x="0" y="-0" width="334.8" height="443.52"/>
  </clipPath>
 </defs>
 <defs>
  <pattern id="h6e30a57754" patternUnits="userSpaceOnUse" x="0" y="0" width="72" height="72">
   <rect x="0" y="0" width="73" height="73" fill="none"/>
   <path d="M -36 36 
L 36 -36 
M -33 39 
L 39 -33 
M -30 42 
L 42 -30 
M -27 45 
L 45 -27 
M -24 48 
L 48 -24 
M -21 51 
L 51 -21 
M -18 54 
L 54 -18 
M -15 57 
L 57 -15 
M -12 60 
L 60 -12 
M -9 63 
L 63 -9 
M -6 66 
L 66 -6 
M -3 69 
L 69 -3 
M 0 72 
L 72 0 
M 3 75 
L 75 3 
M 6 78 
L 78 6 
M 9 81 
L 81 9 
M 12 84 
L 84 12 
M 15 87 
L 87 15 
M 18 90 
L 90 18 
M 21 93 
L 93 21 
M 24 96 
L 96 24 
M 27 99 
L 99 27 
M 30 102 
L 102 30 
M 33 105 
L 105 33 
M 36 108 
L 108 36 
" style="fill: #000000; stroke: #000000; stroke-width: 1.0; stroke-linecap: butt; stroke-linejoin: miter; stroke-opacity: 0.8"/>
  </pattern>
 </defs>
</svg>
